# xmcd
#
# Track frame offsets:
#	150
#	11951
#	27630
#	39355
#	51206
#	66963
#	79826
#	90362
#	101247
#	114884
#	123886
#	136588
#	150886
#	163557
#	175678
#	188424
#	202154
#	213503
#	231814
#
# Disc length: 3248 seconds
#
# Revision: 2
# Processed by: cddbd v1.5.2PL0 Copyright (c) Steve Scherf et al.
# Submitted via: EasyCDDAExtractor 12.0.0.1
#
DISCID=f00cae13
DTITLE=Alan Ladd - Hulde aan LEGENDES
DYEAR=2007
DGENRE=Country
TTITLE0=Bumming around - Dean martin
TTITLE1=For the good times - Perry Como
TTITLE2=The sneaky side of me - Dean Martin
TTITLE3=Yellow Bird - Harry Belafonte
TTITLE4=And I love you so - Perry Como
TTITLE5=Sprokie van 'n stadskind - Koos du Plessis
TTITLE6=Candy kisses - George Morgan
TTITLE7=Little old wine drinker me - Dean Martin
TTITLE8=Hanne - David Kramer
TTITLE9=Jamaica farewell - Harry Belafonte
TTITLE10=Moon river - Jim Reeves
TTITLE11=Ramblin rose - Nat King Cole
TTITLE12=Something stupid - Frank and Nancy Sinatra
TTITLE13=Kinders van die wind - Koos du Plessis
TTITLE14=Everybody loves somebody - Dean Martin
TTITLE15=You belong to me - Dean Martin
TTITLE16=When you're smiling - Red Foley
TTITLE17=Raindrops keep falling on my head - BJ Thomas
TTITLE18=Red roses for a blue lady - Dean Martin
EXTD=
EXTT0=
EXTT1=
EXTT2=
EXTT3=
EXTT4=
EXTT5=
EXTT6=
EXTT7=
EXTT8=
EXTT9=
EXTT10=
EXTT11=
EXTT12=
EXTT13=
EXTT14=
EXTT15=
EXTT16=
EXTT17=
EXTT18=
PLAYORDER=
